<svg width="616" height="245" viewBox="0 0 616 245" fill="none" xmlns="http://www.w3.org/2000/svg">
<path d="M144.013 71H71.9906C66.1526 71 64 73.1582 64 78.9962V149.452C64 150.11 64.0282 150.724 64.0845 151.295C64.2198 152.568 64.2423 153.802 65.4257 155.211C65.544 155.346 66.7556 156.248 66.7556 156.248C67.4036 156.569 67.8488 156.811 68.5813 157.099L104.054 171.992C105.897 172.838 106.663 173.164 107.999 173.119C109.34 173.148 110.106 172.821 111.943 171.992L147.445 157.116C148.183 156.823 148.628 156.586 149.276 156.265C149.276 156.265 150.488 155.363 150.6 155.228C151.789 153.819 151.812 152.585 151.947 151.312C152.003 150.741 152.032 150.126 152.032 149.469V79.0131C152.003 73.1582 149.851 71 144.013 71ZM112.507 84.575H118.48V123.728H112.507V84.575ZM112.811 133.234H116.277V145.102H113.014V138.289L109.994 142.932H109.926L106.917 138.323V145.085H103.705V133.234H107.171L109.988 137.827L112.811 133.234ZM93.2462 84.575H102.6C107.441 84.575 109.836 86.9755 109.836 91.8443V102.247C109.836 107.115 107.441 109.522 102.6 109.522H99.2194V123.728H93.2462V84.575ZM77.0058 84.575H90.2596V89.9959H82.9678V101.075H89.9666V106.496H82.9678V118.329H90.3723V123.756H77.0058V84.575ZM88.276 143.518C87.5953 144.066 86.8352 144.507 86.022 144.825C85.0981 145.188 84.1122 145.366 83.1199 145.35C82.2461 145.359 81.3782 145.204 80.5616 144.893C79.8056 144.605 79.1128 144.172 78.5217 143.62C77.9433 143.072 77.483 142.413 77.1692 141.681C76.8392 140.901 76.6742 140.06 76.6846 139.213V139.179C76.6762 138.347 76.8392 137.522 77.1636 136.756C77.489 136.022 77.9541 135.357 78.5329 134.801C79.1126 134.232 79.8005 133.785 80.5559 133.488C81.3644 133.166 82.2275 133.006 83.0974 133.014C84.859 132.952 86.5766 133.572 87.8928 134.744L85.9656 137.055C85.5716 136.716 85.1314 136.435 84.6583 136.221C84.1687 136.021 83.6432 135.923 83.1143 135.933C82.7023 135.929 82.2945 136.016 81.9196 136.187C81.5537 136.356 81.2244 136.595 80.9504 136.891C80.6747 137.193 80.457 137.542 80.308 137.922C80.149 138.328 80.0687 138.76 80.0713 139.196V139.23C80.0677 139.682 80.1479 140.131 80.308 140.554C80.4563 140.945 80.6848 141.3 80.9786 141.597C81.2661 141.887 81.6091 142.117 81.9873 142.273C82.5038 142.472 83.0582 142.553 83.61 142.51C84.1619 142.467 84.6972 142.302 85.1767 142.025V140.588H82.8607V138.182H88.276V143.518ZM94.3507 133.15H97.512L102.544 145.102H99.056L98.1938 142.983H93.635L92.7841 145.102H89.3411L94.3507 133.15ZM107.734 164.87L91.0936 159.127H125.186L107.734 164.87ZM128.054 145.102H118.475V133.234H127.981V136.052H121.726V137.844H127.406V140.436H121.726V142.318H128.077L128.054 145.102ZM121.625 116.768V91.5061C121.625 86.643 124.019 84.2369 128.866 84.2369H131.756C136.603 84.2369 138.941 86.5867 138.941 91.4498V99.4516H133.092V91.7879C133.092 90.2213 132.371 89.4944 130.866 89.4944H129.863C128.308 89.4944 127.581 90.2213 127.581 91.7879V116.509C127.581 118.076 128.308 118.803 129.863 118.803H130.99C132.495 118.803 133.216 118.076 133.216 116.509V107.673H139.048V116.768C139.048 121.637 136.659 124.038 131.813 124.038H128.849C124.019 124.06 121.625 121.66 121.625 116.768ZM139.274 141.45C139.285 142.012 139.167 142.569 138.93 143.079C138.7 143.55 138.367 143.964 137.955 144.29C137.51 144.64 137.001 144.898 136.456 145.051C135.819 145.236 135.158 145.326 134.495 145.316C133.47 145.321 132.451 145.156 131.48 144.825C130.548 144.509 129.689 144.007 128.956 143.349L130.776 141.163C131.849 142.071 133.207 142.575 134.613 142.588C134.961 142.608 135.308 142.534 135.617 142.374C135.724 142.316 135.814 142.228 135.876 142.122C135.937 142.015 135.969 141.894 135.966 141.771V141.737C135.968 141.623 135.939 141.51 135.881 141.411C135.801 141.292 135.693 141.196 135.566 141.129C135.373 141.02 135.169 140.931 134.957 140.864C134.704 140.779 134.394 140.695 133.971 140.605C133.34 140.458 132.754 140.295 132.213 140.12C131.713 139.965 131.238 139.737 130.804 139.444C130.414 139.175 130.091 138.82 129.857 138.407C129.611 137.935 129.491 137.407 129.508 136.874V136.841C129.503 136.315 129.611 135.794 129.824 135.313C130.035 134.849 130.347 134.437 130.737 134.108C131.163 133.756 131.652 133.49 132.179 133.324C132.796 133.126 133.441 133.031 134.089 133.042C135.009 133.026 135.924 133.161 136.8 133.443C137.583 133.701 138.313 134.1 138.953 134.62L137.301 136.942C136.782 136.572 136.213 136.278 135.611 136.069C135.083 135.878 134.527 135.777 133.965 135.77C133.654 135.747 133.344 135.824 133.081 135.99C132.988 136.051 132.912 136.135 132.859 136.233C132.807 136.332 132.78 136.442 132.782 136.553V136.587C132.78 136.712 132.814 136.835 132.878 136.942C132.96 137.06 133.07 137.155 133.199 137.218C133.397 137.325 133.604 137.411 133.819 137.477C134.084 137.562 134.422 137.646 134.828 137.737C135.449 137.868 136.061 138.042 136.659 138.255C137.155 138.427 137.624 138.67 138.051 138.976C138.441 139.232 138.764 139.578 138.992 139.985C139.205 140.431 139.309 140.922 139.296 141.416L139.274 141.45Z" fill="white"/>
<path d="M103.88 101.971V92.1204C103.88 90.5594 103.158 89.8325 101.626 89.8325H99.2025V104.264H101.654C103.158 104.264 103.88 103.537 103.88 101.971Z" fill="white"/>
<path d="M95.9285 137.049L94.593 140.425H97.2471L95.9285 137.049Z" fill="white"/>
<path d="M170.74 144.401H184.38C193.192 144.401 197.343 140.164 197.343 131.437V98.0548C197.343 89.3279 193.192 85.0916 184.38 85.0916H170.74V144.401ZM179.805 93.0559H183.11C186.668 93.0559 188.278 94.7505 188.278 98.309V131.183C188.278 134.742 186.668 136.436 183.11 136.436H179.805V93.0559Z" fill="white"/>
<path d="M202.595 85.0916V144.401H222.929V136.182H211.661V118.305H222.336V110.086H211.661V93.3101H222.76V85.0916H202.595Z" fill="white"/>
<path d="M245.632 144.485L254.443 85.0916H245.801L240.294 129.319L234.956 85.0916H225.805L234.532 144.485H245.632Z" fill="white"/>
<path d="M286.325 120.084V133.471C286.325 135.843 285.223 136.945 282.936 136.945H281.241C278.868 136.945 277.767 135.843 277.767 133.471V96.0214C277.767 93.649 278.868 92.5475 281.241 92.5475H282.766C285.053 92.5475 286.155 93.649 286.155 96.0214V107.629H295.051V95.513C295.051 88.1417 291.493 84.5832 284.121 84.5832H279.716C272.344 84.5832 268.701 88.2265 268.701 95.5978V133.895C268.701 141.266 272.344 144.909 279.716 144.909H284.206C291.578 144.909 295.221 141.266 295.221 133.895V120.084H286.325Z" fill="white"/>
<path d="M327.002 133.895V95.5978C327.002 88.2265 323.358 84.5832 315.987 84.5832H311.157C303.786 84.5832 300.143 88.2265 300.143 95.5978V133.895C300.143 141.266 303.786 144.909 311.157 144.909H315.987C323.358 144.909 327.002 141.266 327.002 133.895ZM317.936 96.0214V133.471C317.936 135.843 316.834 136.945 314.546 136.945H312.683C310.31 136.945 309.209 135.843 309.209 133.471V96.0214C309.209 93.649 310.31 92.5475 312.683 92.5475H314.546C316.834 92.5475 317.936 93.649 317.936 96.0214Z" fill="white"/>
<path d="M357.33 85.0916L351.483 128.218L345.807 85.0916H332.251V144.401H340.045V98.7326L346.57 144.401H355.466L361.905 99.3257V144.401H370.802V85.0916H357.33Z" fill="white"/>
<path d="M401.265 85.0916L395.419 128.218L389.742 85.0916H376.186V144.401H383.981V98.7326L390.505 144.401H399.401L405.841 99.3257V144.401H414.737V85.0916H401.265Z" fill="white"/>
<path d="M446.472 85.0916H437.406V133.471C437.406 135.843 436.305 136.945 434.017 136.945H432.577C430.205 136.945 429.103 135.843 429.103 133.471V85.0916H420.037V133.895C420.037 141.266 423.68 144.909 431.051 144.909H435.458C442.829 144.909 446.472 141.266 446.472 133.895V85.0916Z" fill="white"/>
<path d="M478.925 144.401V85.0916H470.791V111.781L470.875 121.694L462.402 85.0916H451.812V144.401H459.945V114.916L459.861 104.494L469.096 144.401H478.925Z" fill="white"/>
<path d="M493.479 85.0916H484.414V144.401H493.479V85.0916Z" fill="white"/>
<path d="M514.31 144.401V93.3101H522.444V85.0916H497.11V93.3101H505.244V144.401H514.31Z" fill="white"/>
<path d="M551.799 85.0916H543.073L537.65 110.34L532.567 85.0916H523.247L532.99 124.236V144.401H542.056V123.304L551.799 85.0916Z" fill="white"/>
</svg>
